C:\Users\lingh\OneDrive - KTH\ExMaterials\7-Doctor\Research\2-simulation\PredSimResults\Falisse_et_al_20220.2weak\Falisse_et_al_2022_v1.mot
version=1
nRows=4
nColumns=124
inDegrees=yes
endheader
                time	         pelvis_tilt	         pelvis_list	     pelvis_rotation	           pelvis_tx	           pelvis_ty	           pelvis_tz	       hip_flexion_r	     hip_adduction_r	      hip_rotation_r	        knee_angle_r	       ankle_angle_r	    subtalar_angle_r	         mtp_angle_r	       hip_flexion_l	     hip_adduction_l	      hip_rotation_l	        knee_angle_l	       ankle_angle_l	    subtalar_angle_l	         mtp_angle_l	    lumbar_extension	      lumbar_bending	     lumbar_rotation	          arm_flex_r	           arm_add_r	           arm_rot_r	        elbow_flex_r	          arm_flex_l	           arm_add_l	           arm_rot_l	        elbow_flex_l	glut_med1_r/activation	glut_med2_r/activation	glut_med3_r/activation	glut_min1_r/activation	glut_min2_r/activation	glut_min3_r/activation	semimem_r/activation	semiten_r/activation	bifemlh_r/activation	bifemsh_r/activation	    sar_r/activation	add_long_r/activation	add_brev_r/activation	add_mag1_r/activation	add_mag2_r/activation	add_mag3_r/activation	    tfl_r/activation	   pect_r/activation	   grac_r/activation	glut_max1_r/activation	glut_max2_r/activation	glut_max3_r/activation	iliacus_r/activation	  psoas_r/activation	quad_fem_r/activation	    gem_r/activation	   peri_r/activation	rect_fem_r/activation	vas_med_r/activation	vas_int_r/activation	vas_lat_r/activation	med_gas_r/activation	lat_gas_r/activation	 soleus_r/activation	tib_post_r/activation	flex_dig_r/activation	flex_hal_r/activation	tib_ant_r/activation	per_brev_r/activation	per_long_r/activation	per_tert_r/activation	ext_dig_r/activation	ext_hal_r/activation	glut_med1_l/activation	glut_med2_l/activation	glut_med3_l/activation	glut_min1_l/activation	glut_min2_l/activation	glut_min3_l/activation	semimem_l/activation	semiten_l/activation	bifemlh_l/activation	bifemsh_l/activation	    sar_l/activation	add_long_l/activation	add_brev_l/activation	add_mag1_l/activation	add_mag2_l/activation	add_mag3_l/activation	    tfl_l/activation	   pect_l/activation	   grac_l/activation	glut_max1_l/activation	glut_max2_l/activation	glut_max3_l/activation	iliacus_l/activation	  psoas_l/activation	quad_fem_l/activation	    gem_l/activation	   peri_l/activation	rect_fem_l/activation	vas_med_l/activation	vas_int_l/activation	vas_lat_l/activation	med_gas_l/activation	lat_gas_l/activation	 soleus_l/activation	tib_post_l/activation	flex_dig_l/activation	flex_hal_l/activation	tib_ant_l/activation	per_brev_l/activation	per_long_l/activation	per_tert_l/activation	ext_dig_l/activation	ext_hal_l/activation	 ercspn_r/activation	 ercspn_l/activation	 intobl_r/activation	 intobl_l/activation	 extobl_r/activation	 extobl_l/activation	
          1.13617843	         -7.53850375	         -3.59614635	         10.44357410	          1.49390485	          0.89417204	         -0.01306721	         36.77954943	         -0.30517283	         -1.70460908	        -14.94192025	         13.01357756	         -1.60934873	          0.29203750	        -15.77893302	         -4.98026583	          1.73917262	         -2.67427791	          2.23460237	          3.88973603	         34.20237710	          2.54603616	         -2.16351877	         -2.98707856	        -13.63656189	        -13.48382198	         18.68026327	          7.84663635	          8.17446139	        -13.44979290	         18.00126703	         85.63175339	          0.05954191	          0.05946887	          0.05001285	          0.08135897	          0.05952094	          0.05947248	          0.12772571	          0.05947248	          0.05947046	          0.10001160	          0.05012238	          0.10008271	          0.11890689	          0.06316412	          0.05011948	          0.32700422	          0.05964587	          0.09284281	          0.10009172	          0.05001871	          0.17507890	          0.25736165	          0.10004633	          0.09970483	          0.05000156	          0.05000607	          0.05001805	          0.05001582	          0.05003801	          0.05003636	          0.09560486	          0.05238357	          0.05078267	          0.05587362	          0.05000061	          0.05000353	          0.05000339	          0.69534111	          0.27731604	          0.16384152	          0.49907340	          0.65980912	          0.41127826	          0.05946384	          0.14158077	          0.16888382	          0.05871053	          0.09501487	          0.11117088	          0.05000927	          0.05000596	          0.05000345	          0.10237323	          0.06173645	          0.09655955	          0.09709308	          0.07564668	          0.05008438	          0.05000729	          0.08798326	          0.10441120	          0.08411726	          0.05025012	          0.07438085	          0.07743800	          0.22336994	          0.61881333	          0.16771831	          0.12731811	          0.12403293	          0.09810988	          0.05002185	          0.05001983	          0.05001795	          0.37491223	          0.58147560	          0.30111354	          0.59819483	          0.60069269	          0.60479653	          0.05000084	          0.05011890	          0.05092486	          0.05000551	          0.05000168	          0.05000568	          0.15252117	          0.05177546	          0.18777696	          0.05000052	          0.09965546	          0.05000129	
          1.14754022	         -7.52841277	         -3.26309004	         10.60231340	          1.51150601	          0.89184677	         -0.01380711	         36.78702593	         -0.38422701	         -1.19605923	        -16.32753582	         12.33713276	         -1.87066262	          0.33213358	        -15.80973730	         -4.80712151	          1.39463154	         -4.72593937	          1.64584356	          4.31275349	         35.84578469	          2.62710334	         -1.86312006	         -2.91693714	        -14.98651822	        -13.49476905	         18.61177436	          7.54183026	          8.53515068	        -13.45063975	         18.48470703	         88.20543115	          0.05006320	          0.05000828	          0.05005414	          0.06840875	          0.05004909	          0.05001893	          0.10739060	          0.05000492	          0.05000266	          0.08408914	          0.07072473	          0.08414966	          0.09997650	          0.08412414	          0.05949764	          0.34895473	          0.05017215	          0.07807288	          0.08415943	          0.05002605	          0.19727449	          0.28040232	          0.08412461	          0.08412547	          0.11902612	          0.08410155	          0.05043452	          0.07353146	          0.10954202	          0.14805244	          0.13906886	          0.05000091	          0.05000197	          0.05000040	          0.07072879	          0.05954120	          0.06664637	          0.58463456	          0.30788910	          0.19022566	          0.41961783	          0.55476745	          0.34579872	          0.05001942	          0.11904131	          0.14199625	          0.05003874	          0.07990071	          0.09347654	          0.05002839	          0.05001568	          0.05041047	          0.08607441	          0.05199079	          0.13283944	          0.10479142	          0.20932845	          0.14806602	          0.13161162	          0.07398711	          0.08780874	          0.07074701	          0.05034025	          0.07008019	          0.07588792	          0.18780837	          0.55907996	          0.14101590	          0.10704938	          0.10428813	          0.08409876	          0.12391160	          0.14677151	          0.12393443	          0.31522142	          0.48920895	          0.28779389	          0.59697690	          0.61879967	          0.61317308	          0.05000523	          0.05000177	          0.05000101	          0.05000443	          0.05000186	          0.05001408	          0.12932316	          0.07475707	          0.15788049	          0.05000423	          0.08378930	          0.05000050	
          1.15890200	         -7.51126861	         -2.91071920	         10.71404896	          1.52943297	          0.88967681	         -0.01451680	         36.62365521	         -0.46664409	         -0.65475213	        -18.10131029	         11.85665355	         -2.14142474	          0.26315222	        -15.73357332	         -4.62316130	          1.00939735	         -7.00565742	          0.94247500	          4.74332369	         37.25677890	          2.73671891	         -1.55784576	         -2.83795088	        -16.34021109	        -13.50239061	         18.54895383	          7.34927624	          8.79737772	        -13.45131077	         18.86644909	         90.55817031	          0.40339773	          0.27476155	          0.14971966	          0.22893977	          0.23465411	          0.26605569	          0.09082309	          0.06275525	          0.07428147	          0.07071281	          0.05950203	          0.07075242	          0.08405950	          0.07073141	          0.05002709	          0.36931147	          0.07069624	          0.06564888	          0.07076447	          0.07911296	          0.34073172	          0.33452723	          0.07073127	          0.07073198	          0.10007591	          0.07071643	          0.23103865	          0.06182454	          0.09210220	          0.12448118	          0.11692782	          0.05211957	          0.05945912	          0.05181230	          0.05946872	          0.05006957	          0.05604005	          0.68251556	          0.30751803	          0.15997515	          0.35281485	          0.68487166	          0.36854439	          0.11451676	          0.10008984	          0.11938916	          0.05029207	          0.06719742	          0.07859751	          0.05027030	          0.05001802	          0.05000833	          0.07237065	          0.05009513	          0.17732098	          0.16017186	          0.17601060	          0.12454422	          0.16860701	          0.06222360	          0.07384387	          0.05948846	          0.05020168	          0.05894939	          0.06381342	          0.18549516	          0.55967763	          0.11856451	          0.09000653	          0.08768552	          0.07071008	          0.10419407	          0.12341268	          0.10421097	          0.26503407	          0.41133337	          0.27219856	          0.55270397	          0.54551196	          0.55492333	          0.05000255	          0.05000480	          0.05000392	          0.05000511	          0.05000217	          0.05001095	          0.10873351	          0.09942068	          0.17567804	          0.05000088	          0.07044918	          0.05000419	
          1.17026378	         -7.49038636	         -2.54919258	         10.76438307	          1.54744091	          0.88778759	         -0.01514362	         36.34638410	         -0.53451721	         -0.15639868	        -19.77023328	         11.52926152	         -2.42253274	          0.25161723	        -15.50108289	         -4.43737286	          0.57820206	         -9.56370100	          0.16841803	          5.18610957	         38.25561124	          2.85427821	         -1.24141906	         -2.75086404	        -17.62733859	        -13.50472235	         18.50172811	          7.21913871	          8.97871602	        -13.45115785	         19.14060680	         92.66074267	          0.53548141	          0.46931912	          0.45222943	          0.33312160	          0.33929350	          0.34385888	          0.07636454	          0.08645057	          0.06393044	          0.05945771	          0.05006187	          0.05948838	          0.07067690	          0.05947274	          0.05695462	          0.39488780	          0.05946459	          0.05520515	          0.05950776	          0.30197471	          0.41780790	          0.38777193	          0.05947034	          0.05947095	          0.08414290	          0.05946168	          0.19432979	          0.05198172	          0.07744664	          0.13536945	          0.17661800	          0.05000114	          0.05000293	          0.05000047	          0.05000242	          0.05001047	          0.05000776	          0.77240513	          0.32079923	          0.16756915	          0.63171772	          0.70389894	          0.48250113	          0.16824022	          0.08415568	          0.10038142	          0.11941709	          0.05652937	          0.06608786	          0.05043004	          0.05000990	          0.05000643	          0.06084881	          0.05007153	          0.19897600	          0.22065615	          0.14800120	          0.10488355	          0.18478600	          0.05234667	          0.06210634	          0.05002636	          0.05014882	          0.05003672	          0.05366234	          0.16306049	          0.53200771	          0.09968769	          0.07567724	          0.07372643	          0.05945500	          0.11893666	          0.11894762	          0.10557723	          0.22283717	          0.34584576	          0.25260451	          0.53011029	          0.52085879	          0.53079037	          0.05000290	          0.05000920	          0.05001140	          0.05000801	          0.05000286	          0.05001308	          0.10464146	          0.13514010	          0.15534419	          0.05000061	          0.05923327	          0.05000117	
